<mxfile host="app.diagrams.net" modified="2024-07-10T02:56:28.015Z" agent="Mozilla/5.0 (Windows NT 10.0; Win64; x64) AppleWebKit/537.36 (KHTML, like Gecko) Chrome/126.0.0.0 Safari/537.36 Edg/126.0.0.0" version="24.6.4" etag="RzWhcYwCkBDzK00fhpwd" type="github">
  <diagram name="第 1 页" id="UHEYxL5-tVV-m0jIN17H">
    <mxGraphModel>
      <root>
        <mxCell id="0" />
        <mxCell id="1" parent="0" />
      </root>
    </mxGraphModel>
  </diagram>
</mxfile>
